<svg width="56" height="56" viewBox="0 0 56 56" fill="none" xmlns="http://www.w3.org/2000/svg">
<g filter="url(#filter0_d_2_102)">
<path d="M4 24C4 10.7452 14.7452 0 28 0C41.2548 0 52 10.7452 52 24C52 37.2548 41.2548 48 28 48C14.7452 48 4 37.2548 4 24Z" fill="#3A5F56" fill-opacity="0.1"/>
<path d="M28 13.5C34.08 13.5 39.24 17 40 21.6011V21.7978C40 21.8371 39.96 21.8371 39.96 21.8764C39.92 21.8764 39.92 21.9157 39.92 21.9551C39.92 21.9551 39.92 21.9944 39.88 21.9944C39.84 21.9944 39.84 22.0337 39.8 22.0337C39.76 22.073 39.76 22.073 39.72 22.073H36.96V33.7135H37.76C38 33.7135 38.16 33.8708 38.16 34.1067C38.16 34.3427 38 34.5 37.76 34.5H30.96C30.72 34.5 30.56 34.3427 30.56 34.1067C30.56 33.8708 30.72 33.7135 30.96 33.7135H31.92V22.073H24.2V33.6742H25.08C25.32 33.6742 25.48 33.8315 25.48 34.0674C25.48 34.3034 25.32 34.4607 25.08 34.4607H18.28C18.04 34.4607 17.88 34.3034 17.88 34.0674C17.88 33.8315 18.04 33.6742 18.28 33.6742H19.16V22.0337H16.2C16.16 22.0337 16.12 21.9944 16.12 21.9944L16.1096 21.9842L16.08 21.9551C16.08 21.9157 16.04 21.9157 16.04 21.8764C16 21.8371 16 21.8371 16 21.7978V21.6011C16.76 17 21.92 13.5 28 13.5ZM23.4 22.073H20V33.7135H23.4V22.073ZM36.12 22.073H32.72V33.7135H36.12V22.073ZM28 14.2865C22.52 14.2865 17.84 17.2753 16.88 21.2865H39.12C38.16 17.2753 33.48 14.2865 28 14.2865ZM30.32 18.1011C30.56 18.1011 30.72 18.2584 30.72 18.4944C30.72 18.7303 30.56 18.8876 30.32 18.8876H25.72C25.48 18.8876 25.32 18.7303 25.32 18.4944C25.32 18.2584 25.48 18.1011 25.72 18.1011H30.32Z" fill="#3A5F56"/>
</g>
<defs>
<filter id="filter0_d_2_102" x="0" y="0" width="56" height="56" filterUnits="userSpaceOnUse" color-interpolation-filters="sRGB">
<feFlood flood-opacity="0" result="BackgroundImageFix"/>
<feColorMatrix in="SourceAlpha" type="matrix" values="0 0 0 0 0 0 0 0 0 0 0 0 0 0 0 0 0 0 127 0" result="hardAlpha"/>
<feOffset dy="4"/>
<feGaussianBlur stdDeviation="2"/>
<feComposite in2="hardAlpha" operator="out"/>
<feColorMatrix type="matrix" values="0 0 0 0 0 0 0 0 0 0 0 0 0 0 0 0 0 0 0.25 0"/>
<feBlend mode="normal" in2="BackgroundImageFix" result="effect1_dropShadow_2_102"/>
<feBlend mode="normal" in="SourceGraphic" in2="effect1_dropShadow_2_102" result="shape"/>
</filter>
</defs>
</svg>
